<?xml version="1.0" standalone="no"?>
<!DOCTYPE svg PUBLIC "-//W3C//DTD SVG 20010904//EN"
 "http://www.w3.org/TR/2001/REC-SVG-20010904/DTD/svg10.dtd">
<svg version="1.0" xmlns="http://www.w3.org/2000/svg"
 width="908.000000pt" height="908.000000pt" viewBox="0 0 908.000000 908.000000"
 preserveAspectRatio="xMidYMid meet">
<metadata>
Created by potrace 1.11, written by Peter Selinger 2001-2013
</metadata>
<g transform="translate(0.000000,908.000000) scale(0.100000,-0.100000)"
fill="#000000" stroke="none">
<path d="M3978 7285 c-2 -2 -76 -7 -163 -10 -88 -4 -187 -8 -220 -10 -92 -5
-276 -17 -315 -20 -19 -2 -42 -4 -50 -4 -12 -1 -16 -18 -18 -79 -2 -42 -5
-102 -8 -132 -4 -62 -15 -288 -18 -365 l-1 -50 40 1 c22 1 85 5 140 9 55 4
127 9 160 11 33 1 94 5 135 8 359 25 1052 35 1400 21 292 -12 359 -15 414 -20
32 -3 62 -8 67 -11 5 -3 9 0 9 6 0 6 4 9 9 6 5 -3 44 -8 87 -12 44 -3 99 -7
124 -9 25 -3 77 -7 115 -9 90 -6 215 -16 229 -19 15 -3 13 93 -10 458 -4 61
-8 120 -8 132 -1 12 -4 24 -7 27 -6 7 -82 16 -164 21 -33 2 -85 6 -115 9 -52
5 -102 9 -330 22 -188 11 -276 14 -305 13 -16 0 -34 0 -40 1 -20 3 -1154 8
-1157 5z"/>
<path d="M2580 7179 c-30 -4 -77 -10 -105 -13 -73 -8 -135 -16 -175 -22 -83
-12 -106 -16 -130 -20 -14 -3 -32 -6 -40 -6 -14 0 -112 -13 -175 -24 -71 -12
-86 -14 -112 -18 -16 -3 -48 -8 -73 -12 -25 -4 -54 -8 -65 -10 -11 -1 -20 -3
-20 -4 0 -1 -13 -3 -30 -6 -16 -2 -39 -6 -50 -8 -11 -3 -27 -5 -37 -5 -15 -1
-25 -32 -33 -111 -2 -14 -6 -47 -9 -75 -3 -27 -8 -72 -11 -100 -3 -27 -7 -63
-10 -80 -6 -42 -18 -182 -19 -230 -1 -29 3 -39 12 -37 8 1 33 5 57 8 24 2 53
7 66 9 26 5 93 16 124 21 11 1 22 3 25 4 3 1 8 2 12 1 4 0 31 4 60 9 74 13
125 20 178 26 25 2 70 8 100 14 30 5 78 12 105 15 28 3 65 8 83 10 17 3 47 7
65 10 37 5 96 12 187 21 79 8 94 15 96 46 1 12 4 73 8 133 4 61 9 130 11 155
4 43 12 148 20 257 l4 52 -32 -1 c-18 -1 -57 -5 -87 -9z"/>
<path d="M6614 7127 c3 -23 8 -82 11 -132 4 -49 8 -112 11 -140 8 -85 14 -157
18 -233 3 -41 6 -75 8 -77 5 -5 121 -23 193 -30 34 -3 118 -14 155 -19 14 -2
48 -7 75 -11 28 -3 61 -8 75 -10 14 -3 45 -7 70 -9 25 -3 61 -8 80 -12 19 -3
52 -7 72 -8 21 0 38 -3 38 -6 0 -4 10 -7 23 -7 22 -1 56 -6 155 -22 56 -9 61
-7 56 24 -2 11 -6 52 -9 90 -3 39 -7 81 -9 95 -3 14 -7 55 -11 92 -3 37 -8 77
-10 90 -4 26 -15 115 -20 171 -4 47 -3 46 -46 51 -19 3 -88 14 -154 26 -159
28 -158 28 -245 41 -41 6 -84 12 -95 14 -111 17 -239 35 -280 40 -77 9 -119
15 -143 20 -21 4 -22 1 -18 -38z"/>
<path d="M1039 6926 c-3 -3 -20 -8 -39 -11 -19 -3 -55 -11 -80 -16 -25 -6 -52
-12 -60 -14 -260 -59 -471 -115 -499 -132 -48 -30 -92 -78 -111 -120 -18 -42
-23 -62 -35 -153 -3 -25 -8 -61 -11 -80 -2 -19 -7 -53 -9 -75 -2 -22 -6 -58
-9 -80 -9 -67 -21 -179 -31 -285 -3 -36 -8 -78 -10 -95 -2 -16 -7 -70 -10
-120 -3 -49 -7 -108 -10 -130 -3 -22 -7 -85 -10 -140 -4 -55 -8 -131 -10 -170
-24 -395 -24 -1154 0 -1535 12 -190 23 -342 30 -430 3 -30 7 -84 10 -119 3
-35 8 -84 10 -110 3 -25 8 -66 10 -91 8 -86 17 -165 21 -185 2 -11 7 -45 10
-75 28 -264 44 -321 114 -388 38 -37 111 -69 195 -87 11 -2 35 -8 53 -14 18
-5 35 -10 37 -9 3 0 54 -11 113 -26 214 -51 278 -65 321 -72 39 -6 43 -5 38
12 -3 10 -8 44 -12 74 -4 30 -8 66 -10 80 -12 79 -21 151 -30 240 -5 52 -10
95 -19 168 -4 36 -10 45 -29 48 -118 18 -253 48 -264 58 -11 10 -17 37 -14 62
1 8 12 9 39 4 20 -5 53 -11 72 -14 19 -3 46 -8 60 -11 14 -2 47 -9 74 -14 l48
-9 -7 87 c-3 47 -8 102 -10 121 -3 36 -11 142 -20 260 -9 120 -28 466 -28 513
1 15 -2 28 -6 28 -22 5 -56 9 -126 15 -44 3 -93 7 -110 9 -16 1 -42 3 -56 4
-21 1 -28 7 -31 29 -6 45 -1 49 62 46 33 -2 104 -5 158 -8 l98 -4 -1 579 0
580 -162 -7 c-153 -5 -161 -5 -158 13 2 10 4 27 4 38 1 13 8 21 19 21 22 0
219 15 252 19 14 2 32 3 41 4 12 1 16 13 17 54 2 105 16 349 27 492 3 33 8 96
11 140 3 44 7 96 9 115 1 19 6 75 10 123 l7 88 -29 -6 c-38 -7 -155 -27 -173
-30 -8 -1 -30 -5 -47 -9 -42 -10 -51 -3 -45 33 4 32 28 45 102 56 33 5 193 37
197 39 4 3 13 64 19 126 3 36 7 77 10 91 2 14 6 52 9 85 3 32 8 73 11 89 3 17
7 44 9 60 7 67 16 149 18 158 2 10 -16 20 -24 13z"/>
<path d="M8075 6883 c8 -48 21 -150 41 -318 8 -66 10 -86 19 -173 4 -41 12
-75 19 -77 6 -1 76 -15 156 -30 80 -14 153 -28 162 -31 16 -5 35 -60 25 -71
-5 -4 -36 0 -157 22 -202 36 -192 37 -185 -22 3 -27 8 -70 10 -98 12 -137 18
-217 31 -385 2 -30 6 -100 8 -155 12 -229 17 -320 20 -323 6 -5 50 -10 166
-17 58 -4 114 -8 125 -10 11 -1 35 -3 53 -4 31 -1 32 -3 32 -42 0 -22 -4 -38
-9 -34 -6 3 -90 8 -189 11 l-179 5 4 -68 c5 -82 5 -938 0 -1039 l-3 -72 100 5
c56 2 141 5 189 6 l88 3 -3 -34 c-3 -39 1 -37 -110 -45 -37 -3 -73 -9 -79 -13
-8 -5 -9 -3 -4 6 5 8 4 11 -2 7 -5 -4 -46 -9 -89 -12 -43 -4 -82 -9 -86 -13
-4 -4 -10 -59 -13 -122 -3 -63 -8 -149 -10 -190 -10 -187 -35 -514 -51 -652
l-5 -48 33 5 c18 2 47 7 63 10 36 6 75 12 130 21 22 3 59 9 83 14 l42 7 -4
-34 c-2 -18 -5 -35 -7 -37 -2 -2 -78 -18 -169 -36 -91 -18 -168 -35 -172 -39
-4 -4 -10 -33 -13 -66 -6 -61 -11 -100 -20 -177 -3 -24 -7 -61 -9 -83 -3 -22
-7 -56 -10 -75 -3 -19 -8 -53 -10 -75 -2 -22 -7 -57 -11 -77 -3 -21 -4 -38 -2
-38 11 0 199 41 277 60 47 12 92 23 100 25 83 17 266 70 268 76 2 5 8 9 14 9
17 0 84 73 101 110 21 46 25 64 33 135 3 33 8 69 10 80 2 11 6 43 9 70 3 28 7
66 10 85 2 19 7 60 10 90 4 30 8 73 11 95 3 22 7 63 9 90 3 28 7 73 10 100 14
149 19 208 30 380 22 341 29 564 29 975 -1 354 -4 512 -19 805 -9 172 -32 468
-51 645 -3 30 -8 75 -10 100 -5 45 -8 73 -18 160 -3 25 -8 72 -11 105 -4 32
-8 62 -10 65 -2 3 -6 33 -10 67 -8 86 -11 95 -35 142 -36 72 -113 130 -190
144 -14 3 -45 11 -70 18 -25 7 -52 14 -60 15 -8 2 -35 8 -60 14 -25 7 -52 13
-60 15 -8 2 -46 11 -85 20 -38 9 -78 19 -87 21 -39 9 -54 12 -83 19 -16 4 -38
9 -48 12 -16 4 -18 0 -12 -34z"/>
<path d="M4178 6525 c-4 -4 -71 -8 -150 -10 -240 -7 -459 -16 -683 -31 -55 -3
-115 -6 -132 -6 -18 0 -33 -3 -34 -7 -6 -38 -23 -522 -34 -938 -5 -203 -5
-199 36 -195 7 1 268 8 644 18 143 4 499 7 790 6 292 -1 544 -1 560 -1 17 1
35 1 40 0 6 0 89 -2 185 -5 96 -2 276 -7 400 -11 124 -4 259 -8 300 -9 l75 -1
-1 60 c-2 81 -13 491 -18 640 -3 66 -8 176 -11 245 -4 69 -7 139 -6 155 1 26
-2 30 -26 31 -25 1 -165 9 -313 19 -252 16 -840 38 -917 35 -19 0 -20 0 -278
3 -132 1 -247 -1 -256 -5 -8 -3 -20 -3 -27 1 -6 4 -38 4 -72 1 -33 -3 -61 -2
-63 3 -1 4 -5 5 -9 2z"/>
<path d="M2515 6421 c-3 -2 -24 -5 -47 -7 -61 -4 -189 -17 -293 -30 -16 -2
-55 -6 -85 -9 -30 -3 -71 -8 -90 -10 -19 -3 -55 -7 -80 -10 -113 -13 -209 -25
-275 -35 -33 -5 -82 -12 -110 -16 -27 -3 -53 -9 -57 -12 -10 -10 -21 -114 -33
-307 -10 -163 -16 -265 -20 -313 -2 -29 -7 -119 -11 -200 -3 -81 -7 -164 -8
-184 -4 -46 -13 -45 159 -34 179 12 398 25 515 31 47 2 119 7 160 10 41 2 136
7 210 11 74 3 139 9 143 14 5 4 10 75 12 156 6 233 23 635 39 907 l2 47 -63
-2 c-36 -2 -66 -5 -68 -7z"/>
<path d="M6675 6297 c4 -67 9 -153 10 -192 2 -38 6 -119 9 -180 6 -119 17
-415 20 -532 1 -40 5 -75 9 -79 4 -4 35 -8 69 -10 35 -1 113 -5 173 -9 61 -3
148 -8 195 -10 248 -14 369 -21 503 -30 l68 -5 -5 112 c-3 62 -8 172 -11 243
-3 72 -7 155 -10 185 -3 30 -7 93 -10 140 -3 47 -8 114 -11 150 -7 67 -12 136
-13 180 -2 39 -14 50 -62 55 -24 2 -64 7 -89 10 -52 7 -84 11 -160 20 -30 3
-67 8 -83 11 -15 2 -53 7 -85 9 -31 3 -70 7 -87 9 -16 2 -61 7 -100 11 -38 4
-81 8 -95 10 -27 4 -115 13 -193 20 l-48 4 6 -122z"/>
<path d="M4030 5210 c-135 -3 -341 -5 -457 -5 -117 0 -213 -2 -213 -5 0 -3
-50 -5 -110 -4 l-110 0 -1 -80 c-4 -254 -3 -1115 1 -1167 l5 -61 240 -5 c295
-7 2184 -6 2460 0 110 3 230 5 267 6 l66 1 2 148 c3 208 3 785 0 987 l-3 170
-116 2 c-64 2 -134 2 -156 2 -22 0 -44 0 -50 0 -614 13 -1483 18 -1825 11z"/>
<path d="M2277 5173 c-1 0 -87 -4 -192 -7 -104 -4 -253 -9 -330 -11 -77 -3
-187 -7 -245 -9 l-105 -3 -3 -29 c-7 -63 -8 -1051 -1 -1081 3 -17 3 -35 -1
-40 -4 -4 -4 -18 1 -30 7 -18 16 -23 46 -24 21 0 92 -2 158 -4 480 -17 802
-27 899 -29 l89 -1 1 637 1 638 -158 -3 c-87 -1 -159 -3 -160 -4z"/>
<path d="M6725 4542 l0 -637 65 1 c90 2 546 15 655 19 50 2 134 4 188 5 65 1
97 6 98 13 8 76 13 905 7 1145 l-2 62 -41 1 c-22 0 -83 2 -135 4 -150 5 -458
15 -655 20 l-180 5 0 -638z"/>
<path d="M1409 3828 c-3 -33 5 -224 16 -413 3 -38 7 -110 10 -160 3 -49 7
-112 9 -140 3 -27 7 -88 11 -135 8 -119 15 -183 20 -189 3 -3 13 -6 23 -7 9
-1 40 -5 67 -8 28 -4 61 -9 75 -11 14 -2 43 -6 65 -9 22 -3 60 -8 85 -11 25
-2 56 -6 70 -9 14 -2 54 -7 90 -11 36 -4 79 -8 95 -10 17 -2 55 -7 85 -10 30
-4 71 -9 90 -11 19 -3 58 -7 85 -9 28 -3 70 -7 95 -9 238 -24 239 -24 243 -12
2 6 2 25 1 41 -1 17 -5 84 -8 150 -4 66 -9 161 -11 210 -6 109 -15 358 -19
553 -2 79 -6 146 -9 148 -3 3 -38 7 -79 9 -40 2 -122 7 -183 10 -60 4 -144 9
-185 10 -41 2 -75 4 -75 5 0 1 -43 3 -95 5 -133 6 -354 20 -497 30 -56 5 -73
3 -74 -7z"/>
<path d="M7577 3824 c-2 -2 -228 -15 -342 -20 -44 -1 -80 -3 -80 -4 0 -2 -84
-6 -270 -15 -82 -3 -154 -11 -160 -16 -5 -5 -10 -44 -11 -87 -2 -112 -13 -410
-19 -516 -3 -50 -7 -133 -10 -185 -7 -167 -17 -296 -23 -305 -4 -8 118 -3 203
8 17 2 59 7 95 11 36 3 81 8 100 10 19 3 56 7 81 10 26 2 66 7 90 10 62 7 126
15 179 21 25 2 56 7 70 9 14 3 50 7 80 10 30 3 64 7 75 10 11 2 23 4 26 4 3 1
6 20 8 44 1 23 4 60 6 82 6 70 15 178 20 250 2 39 7 108 10 155 4 47 8 123 10
170 2 47 6 145 10 218 l7 133 -77 -3 c-42 -1 -77 -3 -78 -4z"/>
<path d="M3146 3557 c2 -106 7 -257 10 -337 3 -80 4 -154 4 -165 -2 -28 -2
-24 5 -185 4 -80 8 -168 9 -197 0 -28 4 -54 7 -57 6 -7 70 -12 249 -22 63 -3
142 -7 175 -9 482 -26 1455 -26 1935 0 36 2 117 6 180 10 203 10 413 24 417
29 1 1 5 78 8 171 4 94 9 217 11 275 5 123 14 456 17 585 l2 90 -150 -2 c-83
-1 -240 -4 -350 -8 -668 -20 -1547 -20 -2115 0 -96 3 -230 8 -297 10 l-121 3
4 -191z"/>
<path d="M1486 2623 c4 -65 11 -128 14 -128 0 0 3 -33 5 -74 3 -40 8 -85 11
-100 3 -14 7 -44 9 -66 1 -22 6 -65 10 -95 5 -30 8 -63 7 -72 -1 -20 8 -27 40
-34 44 -8 383 -65 413 -69 17 -2 30 -4 30 -5 0 -1 14 -3 30 -5 17 -2 48 -6 70
-10 66 -10 107 -15 160 -19 28 -3 57 -7 65 -10 8 -2 38 -7 65 -10 28 -3 66 -8
85 -10 19 -2 67 -7 105 -11 39 -4 75 -8 80 -9 11 -1 11 48 1 169 -4 44 -9 109
-11 145 -2 36 -6 103 -10 150 -4 47 -8 102 -9 122 -1 20 -4 39 -6 41 -3 3 -32
8 -65 11 -33 4 -71 9 -85 11 -14 3 -50 7 -80 10 -30 3 -65 7 -78 9 -13 3 -50
8 -83 11 -33 4 -70 8 -82 11 -12 2 -40 6 -62 9 -119 15 -178 23 -210 29 -11 2
-45 7 -75 11 -56 8 -77 11 -120 20 -14 3 -43 7 -65 10 -22 4 -49 7 -60 9 -11
2 -39 6 -62 10 l-42 7 5 -68z"/>
<path d="M7599 2676 c-4 -4 -60 -14 -119 -20 -19 -3 -48 -7 -65 -10 -32 -5
-111 -17 -135 -21 -8 -1 -37 -5 -65 -9 -110 -15 -131 -17 -164 -21 -19 -2 -48
-6 -65 -9 -17 -2 -53 -8 -81 -11 -27 -4 -61 -8 -75 -10 -43 -6 -144 -18 -157
-18 -7 0 -14 -12 -14 -26 -1 -14 -3 -39 -4 -56 -2 -16 -4 -60 -6 -97 -2 -38
-6 -68 -9 -68 -3 0 -5 -28 -6 -63 -1 -62 -9 -165 -20 -264 l-6 -53 49 5 c26 3
64 8 83 11 74 11 96 14 140 19 25 2 56 7 69 9 13 3 49 8 80 12 31 3 58 8 61 9
3 2 33 7 65 10 33 4 62 9 65 10 3 2 26 6 50 10 25 3 68 10 95 15 71 14 104 19
156 26 62 8 69 14 74 60 2 21 6 53 9 69 3 17 7 57 11 90 3 33 10 96 14 140 5
44 9 87 10 95 0 8 2 29 4 45 6 33 10 92 8 113 -1 11 -42 18 -52 8z"/>
<path d="M6047 2483 c-3 -2 -108 -12 -192 -18 -38 -3 -99 -7 -135 -10 -36 -3
-108 -7 -160 -10 -52 -4 -117 -8 -145 -10 -363 -26 -1276 -26 -1680 0 -38 2
-115 7 -170 11 -55 3 -118 7 -140 9 -22 1 -86 6 -141 10 l-102 7 3 -59 c2 -32
7 -114 10 -183 4 -69 8 -152 10 -185 2 -33 5 -90 6 -127 2 -38 6 -68 9 -69 3
0 13 -2 23 -4 43 -8 431 -31 712 -41 329 -12 1168 -6 1425 11 36 2 112 6 170
10 58 3 139 8 180 11 41 3 95 7 120 9 116 7 235 18 239 21 2 2 5 22 6 46 2 24
7 86 10 138 7 96 10 150 19 337 l5 102 -40 -2 c-22 -1 -41 -3 -42 -4z"/>
</g>
</svg>
